<?xml version="1.0" encoding="utf-8"?>
<!DOCTYPE svg PUBLIC "-//W3C//DTD SVG 1.1//EN" "http://www.w3.org/Graphics/SVG/1.1/DTD/svg11.dtd">
<svg xmlns="http://www.w3.org/2000/svg" xml:space="preserve" width="581" height="572" viewBox="-325.5 -270.5 581 572">
  <linearGradient id="a" x1="369.7832" x2="15.665" y1="-106.3628" y2="-475.9229" gradientTransform="matrix(1.0583 0 0 -1.0606 -176.2069 -261.881)" gradientUnits="userSpaceOnUse">
    <stop offset="0" stop-color="#3f3f3f"/>
    <stop offset="1" stop-color="#fff"/>
  </linearGradient>
  <path fill="url(#a)" d="M55.549 285.62c33.951-14.614 44.347-60.314 59.671-97.945 17.936-22.94 33.454 29.985 68.411 25.108 24.097-3.373 62.434-53 47.501-85.302-32.809-35.028-56.169 10.219-76.554-18.921-3.096-31.407 67.751-54.04 51.136-76.956C175.43 4.142 118.975 11.307 64.772-14.192c-24.186-33.356 54.668-19.463 37.316-52.036-7.12-13.066-54.29-44.932-107.786-31.211C-40.047-83.538.326-40.994-53.371-45.403c-36.7-5.577-99.096-34.786-134.722-20.825-27.612 23.06-41.275 55.243-43.536 66.621-5.618 35.171 60.932 11.576 70.621 20.729 28.678 28.841-32.546 64.605-49.853 52.456-6.925-17.016-23.705-25.866-46.735-19.883-23.397 1.753-62.659 86.761-50.949 109.114 19.612 27.906 125.881 63.22 152.17 59.217 34.409 1.084 15.503-17.325 17.982-40.883 5.287-30.015 127.961 12.553 101.853 32.904-34.988 7.903-44.647 22.518-31.818 37.525 23.264 24.038 104.243 45.444 123.907 34.048z"/>
  <path d="M-71.451 254.222c-4.026-4.696-6.4-9.784-6.4-15.053.496-13.878 14.564-23.03 39.381-28.886 1.262-1.204 1.412-1.911 1.472-2.679 1.015-3.372-11.064-13.878-28.024-20.547-16.727-7.09-37.519-12.298-52.067-12.268-11.319.046-16.961 3.056-17.276 6.834-.158 1.31-.218 2.664-.218 4.034-.067 9.272 3.102 17.746 3.23 25.438.098 3.974-1.299 8.64-5.355 11.364-3.966 2.664-9.224 3.628-16.893 3.657-.886 0-1.87 0-2.253-.06-1.585.21-3.357.315-5.326.315-34.477-.57-129.464-32.423-150.983-61.67-1.938-3.718-2.599-8.142-2.599-12.96.06-16.963 8.427-41.197 19.334-62.082 11.282-20.704 23.578-38.271 36.79-39.919 5.168-1.362 10.11-2.032 14.775-2.032 16.893-.092 30.075 8.971 36.226 23.045 1.413.691 3.463 1.15 6.055 1.15 7.759.068 19.364-4.252 28.46-10.987 9.224-6.697 15.684-15.595 15.556-23.436-.03-4.351-1.645-8.73-6.242-13.397 0-.286-3.26-1.34-8.052-1.212-8.458-.029-21.106 1.716-32.802 1.716-14.511-.03-31.157-3.146-31.404-20.229 0-1.491.158-3.019.443-4.765 2.569-12.576 16.382-44.999 44.91-68.97l.473-.414.639-.255c7.383-2.89 15.593-4.034 24.276-4.034 36.888.098 83.668 20.329 112.256 24.61 2.539.196 4.822.286 6.91.286 19.777-.918 18.29-6.066 19.898-17.371.48-10.732.314-27.274 19.529-34.838 9.479-2.476 18.823-3.522 27.761-3.522 43.416.384 77.111 23.723 84.652 36.773 1.938 3.688 2.914 7.113 2.944 10.417-.721 13.374-14.377 16.866-25.027 20.577-11.673 3.5-20.355 7.722-19.439 11.786-.029 1.596.767 4.23 3.305 7.911 52.577 24.67 108.371 17.167 141.54 46.678 2.148 2.957 3.26 6.292 3.26 9.558-.69 13.72-15.247 23.15-28.393 34.364-13.535 10.892-25.703 22.707-25.357 33.363 0 .166 0 .348.015.528 4.837 6.382 8.714 7.615 13.521 7.767 7.797.196 18.223-5.358 30.901-5.494 9.63-.061 20.386 3.777 31.126 15.367l.467.483.285.601c2.568 5.586 3.711 11.621 3.711 17.778-.632 33.069-30.797 69.241-54.472 73.274-1.713.21-3.396.316-5.048.316-14.677-.06-25.644-8.761-34.387-16.679-8.623-8.128-16.135-15.021-19.875-14.54-1.638.03-3.485.691-5.768 3.296-15.339 36.999-25.254 83.978-61.833 100.175v-.03c-4.867 2.542-11.192 3.416-18.703 3.446-32.765-.254-89.054-17.52-109.905-38.578zm127 31.414-1.621-3.793c31.307-13.05 42.182-57.47 58.062-96.696 3.575-4.667 7.992-7.422 12.769-7.392 10.021.497 16.705 9.213 25.328 16.664 8.518 7.691 17.786 14.586 28.934 14.511 1.337 0 2.688-.062 4.025-.211 17.142-1.687 47.952-37.194 47.321-65.177 0-4.907-.842-9.56-2.689-13.788-9.539-9.844-17.275-12.208-24.727-12.253-10.141-.151-19.995 5.283-30.901 5.464-7.256.135-14.857-3.297-20.821-12.087l-.602-.858-.104-1.024c-.09-.722-.181-1.579-.181-2.483.346-16.465 15.054-28.509 28.393-39.685 13.73-10.83 26.05-21.721 25.358-28.043 0-1.489-.405-2.979-1.112-4.161-27.791-25.875-84.426-19.336-139.964-45.12l-.947-.45-.6-.852c-3.546-4.892-5.423-9.242-5.453-13.563.915-12.99 14.451-15.722 25.012-19.53 11.567-3.56 20.161-7.751 19.424-12.832.03-1.588-.48-3.778-1.967-6.541-4.282-8.669-37.452-32.836-77.457-32.453-8.337 0-16.96.949-25.222 3.048-13.957 5.811-12.995 15.429-13.926 27.591-.03 11.56-5.153 25.98-28.04 25.062-2.343 0-4.845-.128-7.827-.354-30.616-4.764-77.081-24.641-111.339-24.55-7.707 0-14.677.978-20.618 3.213-26.379 22.119-39.772 53.759-41.665 63.762-.218 1.212-.286 2.318-.286 3.305 0 9.43 8.338 11.755 23.232 12.071 10.967 0 23.42-1.716 32.802-1.716 5.363.129 9.862.188 13.731 3.522 5.926 5.878 8.743 12.645 8.713 19.245-.954 24.008-31.855 42.048-52.166 42.589-4.251-.037-8.277-.827-11.635-3.176l-.984-.7-.443-1.084c-5.01-12.033-14.707-19.115-29.218-19.205-3.898 0-8.15.503-13.438 1.836-6.535-.249-20.761 15.594-30.939 35.728-10.516 19.906-18.44 43.914-18.379 58.273 0 4.065.63 7.242 1.396 8.701 15.939 24.069 113.653 58.344 144.043 57.771 1.652 0 3.08-.106 4.913-.286.894.03 1.78.03 2.666.03 14.392-.828 13.498-2.259 14.106-6.864.09-5.208-3.208-14.54-3.237-25.438 0-1.655.067-3.373.315-5.239 2.254-10.837 13.476-13.817 25.329-13.787 16.322.03 37.586 5.464 55.238 12.899 17.403 7.902 31.907 15.851 32.989 28.073.03 3.718-2.02 7.209-5.16 9.618l-.698.572-.917.225c-24.945 5.495-34.612 14.602-34.071 21.149-.03 2.694 1.239 5.976 4.281 9.559 16.953 18.002 73.971 36.17 103.881 35.915 6.985.03 12.454-1.039 15.098-2.604l1.995 3.599z"/>
  <linearGradient id="b" x1="174.9023" x2="174.9023" y1="-141.7412" y2="-150.7633" gradientUnits="userSpaceOnUse">
    <stop offset="0" stop-color="#60a8d0"/>
    <stop offset="1" stop-color="#fff"/>
  </linearGradient>
  <path fill="url(#b)" stroke="#000" stroke-width="2" d="M177.255-186.35s1.7 17.126 12.389 16.698c10.694-.425 15.812 9.429 15.812 17.135s-11.098 21.834-28.626 14.128c-17.523-7.708-32.48-20.124-32.48-20.124l32.905-27.837z"/>
  <linearGradient id="c" x1="-7.0132" x2="-7.0132" y1="63.0654" y2="54.0434" gradientUnits="userSpaceOnUse">
    <stop offset="0" stop-color="#60a8d0"/>
    <stop offset="1" stop-color="#fff"/>
  </linearGradient>
  <path fill="url(#c)" stroke="#000" stroke-width="2" d="M-2.989 11.231s-8.974 17.133 8.126 17.985c17.101.85 26.057.416 25.209 14.977-.851 14.563-6.835 26.129-24.785 26.129-17.949 0-21.365-17.561-33.331-16.274-11.968 1.284-16.657-2.136-16.657-2.136l41.438-40.681z"/>
  <linearGradient id="d" x1="-52.8618" x2="-49.5986" y1="-141.3936" y2="-137.7682" gradientUnits="userSpaceOnUse">
    <stop offset="0" stop-color="#60a8d0"/>
    <stop offset="1" stop-color="#fff"/>
  </linearGradient>
  <path fill="url(#d)" stroke="#000" stroke-width="2" d="M-90.052-115.786s61.496-59.491 68.56-59.491 13.418 8.504 9.187 15.582c-4.383 7.333-4.219 7.066-67.849 61.61l-9.898-17.701z"/>
  <linearGradient id="e" x1="149.7314" x2="153.7587" y1="-183.3301" y2="-179.7707" gradientUnits="userSpaceOnUse">
    <stop offset="0" stop-color="#60a8d0"/>
    <stop offset="1" stop-color="#fff"/>
  </linearGradient>
  <path fill="url(#e)" stroke="#000" stroke-width="2" d="M63.202-106.458S205.95-267.209 220.805-267.209c14.85 0 15.56 9.906 14.85 15.573-.709 5.667-122.99 135.972-122.99 135.972l-49.463 9.206z"/>
  <linearGradient id="f" x1="21.9736" x2="22.8764" y1="-21.6812" y2="-42.436" gradientUnits="userSpaceOnUse">
    <stop offset="0" stop-color="#60a8d0"/>
    <stop offset="1" stop-color="#fff"/>
  </linearGradient>
  <path fill="url(#f)" stroke="#000" stroke-width="2" d="M-107.141-93.006s-79.833-75.063-79.144-84.979c.691-9.915-7.807-17 10.586-16.291 18.391.709 84.826 75.781 84.826 75.781l12.711 12.745 125.096 2.128s50.169-21.241 94.705-19.829c44.539 1.409 57.957 7.077 57.957 7.077s47.619 35.821 40.289 59.488C233.193-35.28 212.484-8.213 185.47-7.31 137.738-5.714-3.94-17.933-3.94-17.933s-37.473-12.745-53.017-22.66c-15.541-9.915-50.184-52.413-50.184-52.413z"/>
  <path fill="#FF9090" d="M-81.061-72.27s186.392 10.828 209.802 12.631c23.413 1.805 50.427-8.12 57.63-12.631l7.204-4.511 4.501 14.436s-30.614 14.436-63.932 14.436c-33.316 0-74.735-5.414-74.735-5.414L-79.259-65.051l-1.802-7.219z"/>
  <linearGradient id="g" x1="-69.1694" x2="-62.8761" y1="42.9063" y2="49.2002" gradientUnits="userSpaceOnUse">
    <stop offset="0" stop-color="#60a8d0"/>
    <stop offset="1" stop-color="#fff"/>
  </linearGradient>
  <path fill="url(#g)" stroke="#000" stroke-width="2" d="M73.344-52.819 5.492-56.357s-196.488 194.033-196.488 203.948c0 9.914-2.108 17.002 13.436 16.292 15.542-.712 24.037-10.626 31.101-14.163 7.063-3.539 219.803-202.539 219.803-202.539z"/>
  <path fill="#88D0FF" stroke="#000" d="M193.575-76.781s6.303-6.315 11.704-12.631c5.403-6.316 7.205-15.338 7.205-15.338l17.107 17.142s.899 6.316-4.503 9.924c-5.403 3.609-27.013 15.338-27.013 15.338l-4.5-14.435z"/>
  <path fill="none" stroke="#000" d="m205.793-89.349 17.487 13.682"/>
  <linearGradient id="h" x1="119.3701" x2="119.8222" y1="-114.042" y2="-108.6278" gradientUnits="userSpaceOnUse">
    <stop offset="0" stop-color="#60a8d0"/>
    <stop offset="1" stop-color="#fff"/>
  </linearGradient>
  <path fill="url(#h)" d="M46.935-103.621s52.993-19.625 86.76-19.174c33.767.452 62.132 5.414 66.633 8.121 4.502 2.707 6.303 5.865 6.303 5.865s2.7 12.631-18.009 15.338C167.912-90.765 84.17-82.646 59.407-81.743c-24.762.902-29.263-7.668-21.159-13.534 8.105-5.864 8.687-8.344 8.687-8.344z"/>
  <linearGradient id="i" x1="-138.2036" x2="-128.4547" y1="-125.0127" y2="-134.1884" gradientUnits="userSpaceOnUse">
    <stop offset="0" stop-color="#60a8d0"/>
    <stop offset="1" stop-color="#fff"/>
  </linearGradient>
  <path fill="url(#i)" d="m-78.36-105.064-12.104-12.129s-67.475-75.994-85.03-76.539c-18.398-.571-9.721 6.155-10.13 16.085-.386 9.36 79.24 84.626 79.24 84.626s4.591 5.95 17.108 19.624c6.313.584 19.709 9.871 25.066-22.332.797-4.784 4.928-6.895 6.214-9.352l-20.364.017z"/>
  <linearGradient id="j" x1="-16.6943" x2="-16.6943" y1="-103.8823" y2="-98.283" gradientUnits="userSpaceOnUse">
    <stop offset="0" stop-color="#60a8d0"/>
    <stop offset="1" stop-color="#fff"/>
  </linearGradient>
  <path fill="url(#j)" d="M-71.859-105.376s107.302 2.613 109.621 2.613c2.318 0 5.629 2.613 4.306 4.48-1.325 1.866-30.138 7.466-57.626 8.213-27.488.746-63.587-6.347-59.944-10.827l3.643-4.479z"/>
  <linearGradient id="k" x1="-148.8501" x2="-144.6795" y1="-48.897" y2="-44.1826" gradientUnits="userSpaceOnUse">
    <stop offset="0" stop-color="#60a8d0"/>
    <stop offset="1" stop-color="#fff"/>
  </linearGradient>
  <path fill="url(#k)" stroke="#000" stroke-width="2" d="m-203.121-10.236 102.478-89.226 13.436 12.034L-178.39.388s-9.895 7.786-17.667 4.249c-7.769-3.538-7.064-14.873-7.064-14.873z"/>
</svg>